Coordinates
version=1
nRows=14
nColumns=40
inDegrees=yes

Units are S.I. units (second, meters, Newtons, ...)
Angles are in degrees.

endheader
time	pelvis_tilt	pelvis_list	pelvis_rotation	pelvis_tx	pelvis_ty	pelvis_tz	hip_flexion_r	hip_adduction_r	hip_rotation_r	knee_angle_r	knee_angle_r_beta	ankle_angle_r	subtalar_angle_r	mtp_angle_r	hip_flexion_l	hip_adduction_l	hip_rotation_l	knee_angle_l	knee_angle_l_beta	ankle_angle_l	subtalar_angle_l	mtp_angle_l	lumbar_extension	lumbar_bending	lumbar_rotation	arm_flex_r	arm_add_r	arm_rot_r	elbow_flex_r	pro_sup_r	wrist_flex_r	wrist_dev_r	arm_flex_l	arm_add_l	arm_rot_l	elbow_flex_l	pro_sup_l	wrist_flex_l	wrist_dev_l
     27.37000000	     -5.48651822	     -5.01237506	      2.90417238	      1.05373798	      0.92050161	      0.43116391	     -0.28625702	     -0.21636751	    -16.31732608	     25.31598880	     25.31598880	     15.89322706	      0.18706601	     -7.88756146	     28.46647557	     -5.23507471	     -2.07225748	     27.09240741	     27.09240741	      7.33371608	    -15.91808241	      8.57775861	     -6.88046174	      4.53566627	      3.64583663	     28.40850208	    -14.42051598	     -5.85603351	     79.71163093	     44.52980402	      0.00000000	      0.00000000	     -4.21176609	     -7.90438861	      5.88669472	     23.27456529	     44.06584014	      0.00000000	      0.00000000
     27.38200000	     -5.61871491	     -4.85848820	      2.92576530	      1.05418262	      0.92201187	      0.42828147	      0.92775748	     -1.10596939	    -16.13451049	     28.13688338	     28.13688338	     14.42502704	     -0.73375077	     -9.65434664	     27.71138714	     -4.89329492	     -2.24267194	     26.52108843	     26.52108843	      7.70630364	    -15.74583167	      8.57250027	     -6.80748946	      4.44620431	      3.72453035	     26.52150497	    -14.45161596	     -6.13221583	     78.33954841	     44.58594551	      0.00000000	      0.00000000	     -3.14991261	     -7.89461636	      5.71547489	     24.10747942	     44.13120999	      0.00000000	      0.00000000
     27.39400000	     -5.74627365	     -4.75352947	      2.92159215	      1.05444913	      0.92342852	      0.42544548	      2.29400795	     -1.94471203	    -15.76782999	     31.11680442	     31.11680442	     12.46000536	     -2.02240917	    -11.91816102	     26.97107728	     -4.61815289	     -2.41863685	     25.94976461	     25.94976461	      7.95514269	    -15.54106230	      8.52924356	     -6.75615274	      4.44640707	      3.82413228	     24.62706080	    -14.44326378	     -6.51476395	     76.60425208	     44.65934559	      0.00000000	      0.00000000	     -2.09044782	     -7.88640169	      5.47186638	     25.12069766	     44.21013568	      0.00000000	      0.00000000
     27.40600000	     -5.72712495	     -4.72089248	      2.97461084	      1.05470233	      0.92488179	      0.42275809	      3.38377120	     -2.51333503	    -15.08858044	     33.49648650	     33.49648650	      8.18324494	     -5.23697434	    -19.42621348	     26.11158536	     -4.41650711	     -2.49314365	     25.42081918	     25.42081918	      8.12587281	    -15.37444068	      8.11947925	     -6.87740378	      4.49801427	      3.51531721	     23.39017771	    -13.57107137	     -7.81344616	     73.33219259	     44.84891646	      0.00000000	      0.00000000	     -1.44305254	     -7.94676220	      4.56518912	     27.17632965	     44.45602753	      0.00000000	      0.00000000
     27.41800000	     -5.80316569	     -4.66086685	      2.96378170	      1.05472442	      0.92591321	      0.42018381	      5.04323621	     -3.25935986	    -14.41566859	     36.87419605	     36.87419605	      5.66246507	     -7.12222240	    -21.49365520	     25.39293989	     -4.22482355	     -2.70242842	     24.95239231	     24.95239231	      8.32625612	    -15.16239535	      7.64409378	     -6.87870543	      4.53431001	      3.31025141	     21.75482358	    -13.61035848	     -7.31534501	     70.98067223	     44.94850754	      0.00000000	      0.00000000	     -0.46453492	     -7.98764017	      3.72204176	     28.42601574	     44.70697900	      0.00000000	      0.00000000
     27.43000000	     -5.81234067	     -4.48303618	      2.94885787	      1.05453427	      0.92678827	      0.41762905	      6.87490619	     -4.18091351	    -13.71458677	     40.65064951	     40.65064951	      3.63011233	     -8.29688430	    -21.45743294	     24.64830672	     -3.92483947	     -2.95400832	     24.56820572	     24.56820572	      8.65126290	    -14.86093292	      7.48521420	     -7.06334299	      4.47210803	      3.28025039	     19.88986075	    -13.58672822	     -7.21628220	     69.43762710	     44.99255841	      0.00000000	      0.00000000	      0.87256249	     -8.00369799	      3.58839849	     29.28191991	     44.75542842	      0.00000000	      0.00000000
     27.44200000	     -5.87150129	     -4.54666899	      2.89366866	      1.05417026	      0.92741820	      0.41550914	      8.89709493	     -4.54519465	    -12.49995542	     44.32851033	     44.32851033	      1.23131902	    -10.40434872	    -20.99881800	     24.05064330	     -3.90470987	     -3.09411989	     24.28545688	     24.28545688	      8.89798791	    -14.67066650	      6.91310267	     -7.07015430	      4.60004882	      3.11723550	     18.90869754	    -13.10833842	     -7.89762276	     65.01409356	     45.18344944	      0.00000000	      0.00000000	      1.67394317	     -8.13889354	      3.08429911	     31.38729710	     44.89261545	      0.00000000	      0.00000000
     27.45400000	     -5.86890752	     -4.53732860	      2.83044866	      1.05365326	      0.92790471	      0.41349061	     10.97465938	     -4.96957446	    -11.35514020	     48.06439703	     48.06439703	     -0.98051004	    -11.97775298	    -19.83615685	     23.45222313	     -3.82250466	     -3.24574678	     24.11750207	     24.11750207	      9.24695563	    -14.49742150	      6.60002298	     -7.24266044	      4.68738986	      3.32306350	     17.20176048	    -13.23809065	     -7.89273421	     62.32940975	     45.27422750	      0.00000000	      0.00000000	      3.01080109	     -8.20363135	      2.85366030	     32.81893642	     44.96703368	      0.00000000	      0.00000000
     27.46600000	     -5.87769928	     -4.50623059	      2.73448425	      1.05303819	      0.92819302	      0.41163076	     13.14787754	     -5.34438505	    -10.23501101	     51.72980334	     51.72980334	     -3.06089450	    -13.42409033	    -18.32153971	     22.88359790	     -3.74026286	     -3.47800393	     23.98531577	     23.98531577	      9.67540184	    -14.34395596	      6.28496880	     -7.34618010	      4.76836816	      3.48613135	     15.52403718	    -13.24873160	     -7.92424522	     59.71720718	     45.36125132	      0.00000000	      0.00000000	      4.41448432	     -8.29967874	      2.70945573	     34.19256703	     45.02070168	      0.00000000	      0.00000000
     27.47800000	     -5.80872298	     -4.54735237	      2.65676202	      1.05220483	      0.92851596	      0.41006188	     15.41039245	     -5.48179549	     -9.01621976	     55.49342564	     55.49342564	     -3.67177814	    -13.67311384	    -13.05964588	     22.30811437	     -3.76458434	     -3.63368384	     23.93621796	     23.93621796	      9.97585640	    -14.09313736	      5.65901618	     -7.58343093	      4.84997274	      2.82151534	     15.41592730	    -12.43667416	     -8.40702546	     54.03118577	     45.58155967	      0.00000000	      0.00000000	      4.95518873	     -8.82116623	      2.72008679	     36.82089334	     45.09444874	      0.00000000	      0.00000000
     27.49000000	     -5.75473817	     -4.59251217	      2.53712916	      1.05130348	      0.92875339	      0.40869059	     17.65275406	     -5.50513272	     -7.87413627	     58.87525874	     58.87525874	     -4.47485287	    -14.38809323	     -9.04655548	     21.76123973	     -3.81335577	     -3.84359352	     23.91646794	     23.91646794	     10.38018811	    -13.87134722	      5.24567472	     -7.81068178	      4.97993015	      2.77875086	     14.33555442	    -12.29628925	     -8.41788705	     50.30853102	     45.70449027	      0.00000000	      0.00000000	      6.12635704	     -9.10361146	      2.79384443	     38.71714921	     45.17201988	      0.00000000	      0.00000000
     27.50200000	     -5.66839791	     -4.68032588	      2.38650245	      1.05032690	      0.92904785	      0.40748344	     19.75311985	     -5.39352062	     -6.86103490	     61.74613832	     61.74613832	     -5.65001090	    -15.54361711	     -7.14470689	     21.19627939	     -3.90684773	     -3.98866082	     23.92053103	     23.92053103	     10.81675336	    -13.76273538	      4.97539054	     -8.11313807	      5.16237310	      3.22127663	     12.56752128	    -12.49965100	     -8.38739351	     47.71471750	     45.78537858	      0.00000000	      0.00000000	      7.72943236	     -9.16949220	      2.75091723	     40.21248944	     45.22620716	      0.00000000	      0.00000000
     27.51400000	     -5.64138737	     -4.63225532	      2.23970421	      1.04918967	      0.92931025	      0.40634799	     21.88374216	     -5.42920114	     -6.00213509	     64.28970796	     64.28970796	     -6.65384412	    -16.60219791	     -6.18030350	     20.62471136	     -3.84826201	     -4.20372521	     23.78583023	     23.78583023	     11.19337732	    -13.61056603	      4.79705226	     -8.34522108	      5.19677038	      3.15315108	     10.86618424	    -12.37528613	     -8.28828579	     46.09593458	     45.82944427	      0.00000000	      0.00000000	      9.20761542	     -9.44173889	      2.64808618	     41.25383542	     45.26623306	      0.00000000	      0.00000000
     27.52600000	     -5.60181649	     -4.83567460	      2.02468588	      1.04800794	      0.92968233	      0.40564467	     24.13063509	     -5.04911324	     -5.24080940	     66.77105044	     66.77105044	     -5.51273634	    -16.70566456	      0.14347979	     20.07704530	     -4.12913628	     -4.46668059	     23.70457189	     23.70457189	     11.53976692	    -13.35287385	      4.24187073	     -8.53803617	      5.46929937	      2.96004123	     10.98684732	    -11.97337897	     -8.71640231	     39.61579282	     46.08302589	      0.00000000	      0.00000000	      9.93439034	    -10.08965026	      3.41605799	     44.06541947	     45.27113552	      0.00000000	      0.00000000
